Coordinates
version=1
nRows=16
nColumns=38
inDegrees=no

Units are S.I. units (second, meters, Newtons, ...)
If the header above contains a line with 'inDegrees', this indicates whether rotational values are in degrees (yes) or radians (no).

endheader
time	pelvis_tilt	pelvis_list	pelvis_rotation	pelvis_tx	pelvis_ty	pelvis_tz	hip_flexion_r	hip_adduction_r	hip_rotation_r	knee_angle_r	ankle_angle_r	subtalar_angle_r	mtp_angle_r	hip_flexion_l	hip_adduction_l	hip_rotation_l	knee_angle_l	ankle_angle_l	subtalar_angle_l	mtp_angle_l	lumbar_extension	lumbar_bending	lumbar_rotation	arm_flex_r	arm_add_r	arm_rot_r	elbow_flex_r	pro_sup_r	wrist_flex_r	wrist_dev_r	arm_flex_l	arm_add_l	arm_rot_l	elbow_flex_l	pro_sup_l	wrist_flex_l	wrist_dev_l
1.9	-0.0511223	0.0837671	0.0969858	0.910963	1.01872	-0.353502	-0.0421035	-0.100819	-0.270347	-1.79287	0.0295175	-0.1	-4.52391e-05	0.478143	0.0872045	-0.506967	-0.541911	0.314674	0.1	-7.93769e-05	-0.229516	-0.143242	0.0962095	-0.428859	-0.252762	-0.035988	1.99728	1.7182	0.000525988	0.00363372	-0.569213	-0.257925	-0.227075	2.10388	1.55612	0.00300936	0.00292548
1.91	-0.0534509	0.0871287	0.103329	0.906846	1.01185	-0.353249	0.0334785	-0.11212	-0.265207	-1.89083	0.0581722	-0.1	-4.52391e-05	0.471142	0.0915221	-0.464588	-0.615057	0.385654	0.1	-7.93769e-05	-0.239173	-0.146277	0.0653687	-0.42941	-0.250514	-0.0503159	1.94375	1.72702	0.000525988	0.00363372	-0.520953	-0.272369	-0.217573	2.07698	1.56085	0.00300936	0.00292548
1.92	-0.0584843	0.0883799	0.108567	0.902326	1.00567	-0.352921	0.118252	-0.121088	-0.257125	-1.97662	0.0906218	-0.1	-4.52391e-05	0.463136	0.0938999	-0.421172	-0.684943	0.463314	0.1	-7.93769e-05	-0.245959	-0.146184	0.0339563	-0.429999	-0.248872	-0.0641038	1.892	1.73376	0.000525988	0.00363372	-0.471282	-0.286146	-0.205436	2.05436	1.56234	0.00300936	0.00292548
1.93	-0.0663847	0.0868198	0.112169	0.89762	1.00033	-0.35259	0.211139	-0.126754	-0.246334	-2.04781	0.125956	-0.1	-4.52391e-05	0.452152	0.0935293	-0.380234	-0.74549	0.54156	0.1	-7.93769e-05	-0.248653	-0.142242	0.00327391	-0.431924	-0.247924	-0.077079	1.84451	1.73687	0.000525988	0.00363372	-0.421407	-0.298545	-0.190495	2.03836	1.56076	0.00300936	0.00292548
1.94	-0.0769166	0.0818008	0.113624	0.893012	0.995885	-0.352336	0.310029	-0.128218	-0.233492	-2.10217	0.162654	-0.1	-4.52391e-05	0.436075	0.0894933	-0.344849	-0.791827	0.613929	0.1	-7.93769e-05	-0.24637	-0.133736	-0.0253513	-0.436681	-0.247866	-0.0890776	1.80399	1.73518	0.000525988	0.00363372	-0.372791	-0.308799	-0.172769	2.03112	1.557	0.00300936	0.00292548
1.95	-0.0893591	0.072865	0.112525	0.888854	0.9925	-0.352208	0.41178	-0.124769	-0.21964	-2.13787	0.198776	-0.1	-4.52391e-05	0.412796	0.0809631	-0.3176	-0.820697	0.674199	0.1	-7.93769e-05	-0.238874	-0.120129	-0.0507935	-0.445654	-0.248903	-0.100038	1.773	1.72838	0.000525988	0.00363372	-0.326994	-0.316179	-0.152539	2.03421	1.55242	0.00300936	0.00292548
1.96	-0.102545	0.0598628	0.108633	0.885508	0.990373	-0.35221	0.512478	-0.116011	-0.206063	-2.15369	0.232378	-0.1	-4.52391e-05	0.380435	0.0674415	-0.300522	-0.830531	0.716834	0.1	-7.93769e-05	-0.226705	-0.101259	-0.0723149	-0.459802	-0.251121	-0.10999	1.7534	1.71719	0.000525988	0.00363372	-0.285475	-0.320126	-0.130336	2.04842	1.54851	0.00300936	0.00292548
1.97	-0.115105	0.0430707	0.101884	0.883281	0.989682	-0.3523	0.607972	-0.101974	-0.194033	-2.14915	0.261872	-0.1	-4.52391e-05	0.337653	0.048991	-0.295079	-0.821289	0.737339	0.1	-7.93769e-05	-0.211036	-0.0774972	-0.089616	-0.479485	-0.254398	-0.119051	1.74602	1.70331	0.000525988	0.00363372	-0.249409	-0.320358	-0.106818	2.07356	1.5466	0.00300936	0.00292548
1.98	-0.125918	0.0232857	0.0922765	0.882378	0.990523	-0.352396	0.694676	-0.0832254	-0.18441	-2.12461	0.286338	-0.1	-4.52391e-05	0.284119	0.0264389	-0.302117	-0.794213	0.732585	0.1	-7.93769e-05	-0.193226	-0.049873	-0.102704	-0.504452	-0.258388	-0.127439	1.75047	1.68892	0.000525988	0.00363372	-0.219562	-0.316914	-0.0825869	2.10851	1.54759	0.00300936	0.00292548
1.99	-0.134342	0.00175345	0.0798834	0.882881	0.992866	-0.35241	0.77001	-0.0608663	-0.177512	-2.08116	0.305616	-0.1	-4.52391e-05	0.220698	0.00135141	-0.321682	-0.751651	0.701144	0.1	-7.93769e-05	-0.174488	-0.0199567	-0.111812	-0.533969	-0.262584	-0.135482	1.76537	1.6761	0.000525988	0.00363372	-0.196241	-0.310122	-0.0580309	2.15133	1.5519	0.00300936	0.00292548
2	-0.140248	-0.0200004	0.0649324	0.884749	0.996553	-0.352267	0.832506	-0.0364486	-0.173164	-2.02045	0.320077	-0.1	-4.52391e-05	0.149415	-0.0241618	-0.352741	-0.696965	0.643582	0.1	-7.93769e-05	-0.155748	0.0103923	-0.117371	-0.567009	-0.2664	-0.143598	1.78859	1.66626	0.000525988	0.00363372	-0.179288	-0.300536	-0.0332605	2.19962	1.55955	0.00300936	0.00292548
2.01	-0.143912	-0.0403888	0.0478984	0.887816	1.00131	-0.351925	0.881683	-0.0118018	-0.17087	-1.94431	0.330289	-0.1	-4.52391e-05	0.0732377	-0.0477914	-0.392965	-0.634479	0.562682	0.1	-7.93769e-05	-0.137629	0.039302	-0.120015	-0.6024	-0.269252	-0.15225	1.81772	1.6599	0.000525988	0.00363372	-0.16812	-0.288871	-0.00816312	2.25077	1.57022	0.00300936	0.00292548
2.02	-0.145827	-0.0579734	0.0295467	0.891797	1.0068	-0.351392	0.917801	0.0112076	-0.170026	-1.85458	0.336682	-0.1	-4.52391e-05	-0.0042632	-0.0674337	-0.438698	-0.56936	0.463477	0.1	-7.93769e-05	-0.120526	0.0651339	-0.120567	-0.638939	-0.270604	-0.161877	1.85034	1.65663	0.000525988	0.00363372	-0.161818	-0.275962	0.0174583	2.30232	1.58335	0.00300936	0.00292548
2.03	-0.146544	-0.0716414	0.0108974	0.896331	1.01264	-0.350733	0.941556	0.0309523	-0.17009	-1.75284	0.339363	-0.1	-4.52391e-05	-0.0793484	-0.0815458	-0.48514	-0.507322	0.353049	0.1	-7.93769e-05	-0.104716	0.0866744	-0.119986	-0.675451	-0.269998	-0.172831	1.88432	1.65552	0.000525988	0.00363372	-0.159245	-0.262702	0.0437212	2.3521	1.59824	0.00300936	0.00292548
2.04	-0.146507	-0.0807599	-0.0068891	0.901038	1.01845	-0.350067	0.953795	0.0462997	-0.170693	-1.64036	0.33812	-0.1	-4.52391e-05	-0.148576	-0.0893982	-0.526912	-0.454157	0.23994	0.1	-7.93769e-05	-0.0904578	0.103258	-0.119266	-0.710825	-0.26708	-0.185339	1.91787	1.65551	0.000525988	0.00363372	-0.159213	-0.249973	0.0705273	2.39834	1.61408	0.00300936	0.00292548
2.05	-0.145935	-0.0852625	-0.0226767	0.90558	1.02393	-0.34954	0.955281	0.0568035	-0.171684	-1.51817	0.332558	-0.1	-4.52391e-05	-0.209237	-0.0911736	-0.558879	-0.415137	0.133089	0.1	-7.93769e-05	-0.0780751	0.114838	-0.1193	-0.744041	-0.261645	-0.199493	1.94958	1.65569	0.000525988	0.00363372	-0.160651	-0.238558	0.0974868	2.43968	1.63006	0.00300936	0.00292548
